<svg width="1265" height="943" viewBox="0 0 1265 943" fill="none" xmlns="http://www.w3.org/2000/svg">
<path d="M1265 828.414H0V829.048H1265V828.414Z" fill="#EBEBEB"/>
<path d="M1138.25 869.127H1054.45V869.761H1138.25V869.127Z" fill="#EBEBEB"/>
<path d="M837.985 876.008H816V876.642H837.985V876.008Z" fill="#EBEBEB"/>
<path d="M1051.92 845.645H1003.37V846.279H1051.92V845.645Z" fill="#EBEBEB"/>
<path d="M241.996 849.896H132.725V850.531H241.996V849.896Z" fill="#EBEBEB"/>
<path d="M280.551 849.896H264.536V850.531H280.551V849.896Z" fill="#EBEBEB"/>
<path d="M569.631 860.574H332.62V861.209H569.631V860.574Z" fill="#EBEBEB"/>
<path d="M599.611 715.563H111.093C107.266 715.557 103.598 714.031 100.894 711.323C98.1907 708.614 96.6722 704.943 96.6722 701.115V14.3214C96.7055 10.5159 98.2387 6.87725 100.939 4.19576C103.639 1.51427 107.288 0.00651898 111.093 0H599.611C603.442 0 607.117 1.52219 609.826 4.23169C612.535 6.9412 614.057 10.6161 614.057 14.4479V701.115C614.057 704.947 612.535 708.622 609.826 711.332C607.117 714.041 603.442 715.563 599.611 715.563ZM111.093 0.506058C107.434 0.512761 103.927 1.97125 101.342 4.5614C98.7566 7.15156 97.3047 10.6617 97.3047 14.3214V701.115C97.3047 704.775 98.7566 708.285 101.342 710.875C103.927 713.466 107.434 714.924 111.093 714.931H599.611C603.272 714.924 606.782 713.466 609.371 710.877C611.96 708.288 613.418 704.777 613.425 701.115V14.3214C613.418 10.6594 611.96 7.14929 609.371 4.55986C606.782 1.97043 603.272 0.512747 599.611 0.506058H111.093Z" fill="#EBEBEB"/>
<path d="M1146.88 715.563H658.333C654.504 715.557 650.833 714.032 648.125 711.324C645.418 708.616 643.894 704.945 643.887 701.115V14.3214C643.927 10.5136 645.466 6.87497 648.17 4.19417C650.874 1.51338 654.526 0.00644789 658.333 0H1146.88C1150.68 0.0131688 1154.32 1.52386 1157.01 4.20464C1159.71 6.88542 1161.24 10.5203 1161.27 14.3214V701.115C1161.27 704.939 1159.76 708.606 1157.06 711.314C1154.36 714.022 1150.7 715.55 1146.88 715.563ZM658.333 0.506058C654.672 0.512747 651.162 1.97043 648.573 4.55986C645.984 7.14929 644.526 10.6594 644.519 14.3214V701.115C644.526 704.777 645.984 708.288 648.573 710.877C651.162 713.466 654.672 714.924 658.333 714.931H1146.88C1150.54 714.924 1154.05 713.466 1156.64 710.877C1159.23 708.288 1160.68 704.777 1160.69 701.115V14.3214C1160.68 10.6594 1159.23 7.14929 1156.64 4.55986C1154.05 1.97043 1150.54 0.512747 1146.88 0.506058H658.333Z" fill="#EBEBEB"/>
<path d="M514.249 63.4082H173.433V630.343H514.249V63.4082Z" fill="#115810"/>
<path d="M550.78 51.7695H151.369C150.47 51.7695 149.608 52.1268 148.972 52.7626C148.336 53.3985 147.979 54.2609 147.979 55.1601C147.985 56.055 148.346 56.9109 148.981 57.5413C149.616 58.1717 150.474 58.5254 151.369 58.5254H550.78C551.657 58.4992 552.49 58.1339 553.103 57.5063C553.717 56.8787 554.063 56.0377 554.069 55.1601C554.069 54.2781 553.726 53.4307 553.112 52.7977C552.498 52.1647 551.662 51.7959 550.78 51.7695Z" fill="#115810"/>
<path d="M528.719 63.4082H180.186V630.343H528.719V63.4082Z" fill="white"/>
<path d="M514.249 630.344H173.433V639.934H524.217L514.249 630.344Z" fill="#115810"/>
<path d="M552.806 630.344H204.273L214.241 639.934H562.774L552.806 630.344Z" fill="white"/>
<path d="M508.479 610.101L508.479 83.6504L200.451 83.6504L200.451 610.101H508.479Z" fill="#FAFAFA"/>
<path d="M270.356 610.101L389.19 83.6504H445.281L326.446 610.101H270.356Z" fill="white"/>
<path d="M338.515 610.101L457.324 83.6504H479.209L360.374 610.101H338.515Z" fill="white"/>
<path d="M508.479 610.101L508.479 83.6504H505.896L505.896 610.101H508.479Z" fill="#115810"/>
<g opacity="0.4">
<path d="M200.653 45.7227H165.815V560.356H200.653V45.7227Z" fill="white"/>
<path d="M214.239 45.7227H187.092V560.356H214.239V45.7227Z" fill="#115810"/>
<path d="M235.491 45.7227H200.653V560.356H235.491V45.7227Z" fill="white"/>
<path d="M249.076 45.7227H221.93V560.356H249.076V45.7227Z" fill="#115810"/>
<path d="M270.351 45.7227H235.513V560.356H270.351V45.7227Z" fill="white"/>
</g>
<g opacity="0.4">
<path d="M495.501 45.7227H475.413V560.356H495.501V45.7227Z" fill="white"/>
<path d="M503.317 45.7227H487.682V560.356H503.317V45.7227Z" fill="#115810"/>
<path d="M515.59 45.7227H495.502V560.356H515.59V45.7227Z" fill="white"/>
<path d="M523.382 45.7227H507.746V560.356H523.382V45.7227Z" fill="#115810"/>
<path d="M535.654 45.7227H515.565V560.356H535.654V45.7227Z" fill="white"/>
</g>
<path d="M1061.49 63.4082H720.671V630.343H1061.49V63.4082Z" fill="#115810"/>
<path d="M1098.02 51.7695H698.609C697.71 51.7695 696.847 52.1268 696.211 52.7626C695.576 53.3985 695.219 54.2609 695.219 55.1601C695.225 56.055 695.585 56.9109 696.22 57.5413C696.855 58.1717 697.714 58.5254 698.609 58.5254H1098.02C1098.91 58.5254 1099.77 58.1717 1100.41 57.5413C1101.04 56.9109 1101.4 56.055 1101.41 55.1601C1101.41 54.2609 1101.05 53.3985 1100.42 52.7626C1099.78 52.1268 1098.92 51.7695 1098.02 51.7695Z" fill="#115810"/>
<path d="M1075.96 63.4082H727.426V630.343H1075.96V63.4082Z" fill="white"/>
<path d="M1061.49 630.344H720.671V639.934H1071.46L1061.49 630.344Z" fill="#115810"/>
<path d="M1100.05 630.344H751.513L761.481 639.934H1110.01L1100.05 630.344Z" fill="white"/>
<path d="M1055.72 610.101V83.6504L747.688 83.6504V610.101H1055.72Z" fill="#FAFAFA"/>
<path d="M817.593 610.101L936.427 83.6504H992.517L873.683 610.101H817.593Z" fill="white"/>
<path d="M885.727 610.101L1004.56 83.6504H1026.45L907.612 610.101H885.727Z" fill="white"/>
<path d="M1055.69 610.126V83.6758H1053.11V610.126H1055.69Z" fill="#115810"/>
<g opacity="0.4">
<path d="M747.894 45.7227H713.056V560.356H747.894V45.7227Z" fill="white"/>
<path d="M761.481 45.7227H734.334V560.356H761.481V45.7227Z" fill="#115810"/>
<path d="M782.733 45.7227H747.895V560.356H782.733V45.7227Z" fill="white"/>
<path d="M796.318 45.7227H769.171V560.356H796.318V45.7227Z" fill="#115810"/>
<path d="M817.594 45.7227H782.756V560.356H817.594V45.7227Z" fill="white"/>
</g>
<g opacity="0.4">
<path d="M1042.74 45.7227H1022.65V560.356H1042.74V45.7227Z" fill="white"/>
<path d="M1050.53 45.7227H1034.9V560.356H1050.53V45.7227Z" fill="#115810"/>
<path d="M1062.83 45.7227H1042.74V560.356H1062.83V45.7227Z" fill="white"/>
<path d="M1070.62 45.7227H1054.98V560.356H1070.62V45.7227Z" fill="#115810"/>
<path d="M1082.89 45.7227H1062.8V560.356H1082.89V45.7227Z" fill="white"/>
</g>
<path d="M1091.75 691.348H1068.49V828.413H1091.75V691.348Z" fill="#115810"/>
<path d="M1097.94 691.348H1084.25V828.413H1097.94V691.348Z" fill="white"/>
<path d="M1027.86 691.348H1004.61V828.413H1027.86V691.348Z" fill="#115810"/>
<path d="M1032.21 691.348H1018.53V828.413H1032.21V691.348Z" fill="white"/>
<path d="M772.106 715.562H1102.17V691.348H772.106V715.562Z" fill="white"/>
<path d="M706.275 691.348H683.024V828.413H706.275V691.348Z" fill="#115810"/>
<path d="M710.627 691.348H696.94V828.413H710.627V691.348Z" fill="white"/>
<path d="M678.875 715.562H762.188V691.348H678.875V715.562Z" fill="#115810"/>
<path d="M770.156 691.348H746.906V828.413H770.156V691.348Z" fill="#115810"/>
<path d="M776.356 691.348H762.669V828.413H776.356V691.348Z" fill="white"/>
<path d="M241.413 828.414H321.538V703.95H241.413V828.414Z" fill="white"/>
<path d="M498.005 703.949H321.538V828.414H498.005V703.949Z" fill="#F5F5F5"/>
<g style="mix-blend-mode:multiply" opacity="0.7">
<path d="M241.436 722.824H498.838V716.245H241.436V722.824Z" fill="#115810"/>
</g>
<path d="M236.985 719.004H321.538V699.951H236.985V719.004Z" fill="white"/>
<path d="M502.408 699.977H321.538V719.03H502.408V699.977Z" fill="#F5F5F5"/>
<path d="M617.782 789.056C622.775 762.779 605.523 737.43 579.249 732.436C552.976 727.443 527.629 744.696 522.636 770.973C517.643 797.249 534.895 822.599 561.168 827.592C587.442 832.586 612.789 815.333 617.782 789.056Z" fill="#E0E0E0"/>
<path d="M548.023 770.394C543.877 764.354 538.034 759.68 531.232 756.961C524.43 754.243 516.975 753.602 509.81 755.121C502.644 756.639 496.089 760.249 490.974 765.492C485.859 770.736 482.414 777.379 481.073 784.581C479.733 791.783 480.558 799.22 483.443 805.953C486.329 812.687 491.146 818.413 497.285 822.408C503.425 826.404 510.611 828.489 517.935 828.4C525.259 828.312 532.393 826.053 538.434 821.91C542.447 819.158 545.878 815.642 548.532 811.564C551.186 807.485 553.01 802.923 553.901 798.139C554.791 793.355 554.73 788.442 553.722 783.681C552.713 778.921 550.777 774.406 548.023 770.394Z" fill="#EBEBEB"/>
<path d="M632.5 942.682C903.418 942.682 1123.04 929.858 1123.04 914.039C1123.04 898.22 903.418 885.396 632.5 885.396C361.581 885.396 141.958 898.22 141.958 914.039C141.958 929.858 361.581 942.682 632.5 942.682Z" fill="#F5F5F5"/>
<path d="M586.277 160.243C577.422 157.535 566.442 173.476 559.686 191.34C552.931 209.204 541.774 212.265 529.832 219.426C551.894 250.295 603.329 243.843 620.432 239.946C637.535 236.05 652.841 249.663 674.675 233.646C694.232 219.299 692.79 176.563 658.255 157.08C665.896 130.841 587.112 128.209 586.277 160.243Z" fill="#115810"/>
<path d="M679.913 428.048H655.625C653.647 428.096 651.683 427.702 649.877 426.895C648.07 426.088 646.466 424.888 645.182 423.383C643.897 421.877 642.965 420.105 642.452 418.194C641.939 416.283 641.858 414.281 642.216 412.335L644.948 393.788C645.676 389.492 647.868 385.58 651.151 382.716C654.434 379.852 658.607 378.212 662.962 378.075H687.225C689.204 378.023 691.17 378.413 692.979 379.219C694.788 380.025 696.394 381.224 697.679 382.731C698.965 384.237 699.897 386.012 700.408 387.925C700.919 389.838 700.996 391.841 700.634 393.788L697.927 412.436C697.169 416.71 694.966 420.593 691.686 423.435C688.407 426.277 684.25 427.906 679.913 428.048Z" fill="white"/>
<path d="M679.914 428.681H655.626C653.582 428.722 651.553 428.315 649.683 427.489C647.812 426.663 646.145 425.437 644.798 423.898C643.444 422.307 642.456 420.437 641.905 418.421C641.354 416.405 641.254 414.293 641.61 412.234L644.317 393.687C645.07 389.241 647.338 385.194 650.738 382.232C654.137 379.271 658.457 377.578 662.963 377.443H687.226C689.272 377.4 691.303 377.803 693.177 378.625C695.052 379.446 696.725 380.666 698.08 382.199C699.427 383.795 700.41 385.666 700.96 387.68C701.511 389.695 701.616 391.805 701.268 393.864L698.535 412.436C697.788 416.88 695.525 420.927 692.129 423.889C688.734 426.851 684.418 428.544 679.914 428.681ZM662.862 378.708C658.656 378.837 654.626 380.421 651.456 383.189C648.287 385.957 646.176 389.739 645.481 393.889L642.85 412.436C642.531 414.317 642.626 416.244 643.128 418.084C643.631 419.924 644.529 421.632 645.759 423.089C646.982 424.497 648.5 425.617 650.206 426.369C651.912 427.121 653.763 427.487 655.626 427.441H679.914C684.12 427.311 688.151 425.728 691.32 422.959C694.489 420.191 696.601 416.41 697.295 412.259L700.003 393.712C700.33 391.834 700.242 389.906 699.744 388.066C699.245 386.225 698.349 384.516 697.118 383.06C695.891 381.653 694.367 380.536 692.657 379.788C690.947 379.04 689.092 378.68 687.226 378.733L662.862 378.708Z" fill="#115810"/>
<path d="M696.736 402.113H696.609C696.528 402.095 696.451 402.061 696.382 402.013C696.314 401.965 696.256 401.904 696.211 401.833C696.166 401.763 696.136 401.684 696.122 401.602C696.108 401.519 696.11 401.435 696.129 401.354C698.229 391.536 697.925 387.032 690.563 384.679C690.483 384.652 690.409 384.61 690.346 384.555C690.282 384.5 690.23 384.433 690.193 384.358C690.155 384.283 690.133 384.201 690.127 384.117C690.121 384.033 690.131 383.949 690.158 383.869C690.185 383.79 690.227 383.716 690.282 383.652C690.337 383.589 690.404 383.537 690.479 383.499C690.554 383.462 690.636 383.439 690.72 383.433C690.804 383.427 690.888 383.438 690.968 383.464C699.898 386.349 699.266 392.801 697.369 401.632C697.33 401.77 697.247 401.892 697.133 401.979C697.019 402.065 696.879 402.112 696.736 402.113Z" fill="#115810"/>
<path d="M742.455 145.113L784.984 101.086L881.074 175.375L838.545 219.427L742.455 145.113Z" fill="#115810"/>
<path d="M787.437 98.5547L784.982 101.085L881.072 175.374L886.891 154.702L787.437 98.5547Z" fill="#115810"/>
<path d="M755.913 131.323C749.689 127.098 745.641 121.911 744.781 117.078C744.534 115.922 744.528 114.728 744.763 113.57C744.998 112.412 745.469 111.315 746.147 110.347C753.105 100.682 761.934 106.678 771.27 113.029L772.51 113.864L771.827 114.851L770.587 114.016C761.378 107.741 753.408 102.301 747.108 111.031C746.534 111.873 746.134 112.822 745.934 113.822C745.734 114.822 745.738 115.852 745.945 116.85C746.754 121.379 750.625 126.313 756.596 130.337L755.913 131.323Z" fill="#115810"/>
<path d="M669.666 264.593L705.871 237.392L724.036 223.78L728.463 220.44L730.665 218.795L731.727 217.985L732.258 217.53C734.331 215.529 736.134 213.266 737.622 210.799C741.053 204.943 743.755 198.689 745.667 192.176C747.724 185.236 749.414 178.192 750.727 171.074C752.119 163.837 753.257 156.499 754.016 149.086C754.775 141.672 755.585 134.157 756.066 126.844V126.642C756.162 125.188 756.808 123.825 757.872 122.829C758.936 121.833 760.339 121.279 761.796 121.279C763.253 121.279 764.656 121.833 765.72 122.829C766.784 123.825 767.43 125.188 767.527 126.642C768.825 142.23 768.757 157.901 767.324 173.478C766.625 181.439 765.383 189.344 763.605 197.136C761.806 205.407 758.922 213.404 755.028 220.92C752.825 225.127 750.04 229.003 746.755 232.433L745.237 233.901L744.074 234.913L741.847 236.836L737.369 240.682C731.55 245.641 725.647 250.533 719.659 255.357L701.645 269.628C695.523 274.259 689.476 278.889 683.126 283.368C680.637 284.997 677.616 285.607 674.69 285.071C671.764 284.534 669.156 282.893 667.407 280.486C665.658 278.08 664.901 275.093 665.293 272.144C665.685 269.194 667.197 266.509 669.514 264.644L669.666 264.593Z" fill="#FFC3BD"/>
<path d="M756.268 132.765L736.509 123.479L756.926 112.826C756.926 112.826 772.713 120.898 767.653 132.411L756.268 132.765Z" fill="#FFC3BD"/>
<path d="M732.36 109.89L749.944 101.895L756.927 112.825L736.509 123.478L732.36 109.89Z" fill="#FFC3BD"/>
<path d="M692.764 274.941C693.119 291.363 690.816 325.547 679.279 396.395H587.314C588.857 358.972 590.679 335.516 572.792 258.697C585.077 256.172 597.534 254.573 610.059 253.915C623.964 252.914 637.924 252.914 651.829 253.915C660.811 254.724 670.425 256.192 677.762 257.432C681.908 258.149 685.675 260.29 688.414 263.486C691.152 266.682 692.691 270.733 692.764 274.941Z" fill="#115810"/>
<path d="M690.69 384.604C690.52 384.578 690.366 384.488 690.262 384.35C690.158 384.213 690.112 384.041 690.134 383.87C698.508 326.407 614.79 263.934 597.08 255.559C596.996 255.531 596.918 255.485 596.852 255.425C596.786 255.365 596.734 255.291 596.698 255.209C596.663 255.127 596.645 255.039 596.647 254.949C596.648 254.86 596.668 254.772 596.706 254.691C596.744 254.61 596.798 254.538 596.866 254.48C596.933 254.422 597.013 254.378 597.098 254.353C597.184 254.327 597.274 254.32 597.362 254.332C597.451 254.343 597.536 254.374 597.612 254.421C608.137 259.481 633.74 277.699 655.27 301.281C674.271 322.055 695.953 353.279 691.475 384.123C691.433 384.29 691.327 384.433 691.181 384.523C691.034 384.613 690.858 384.642 690.69 384.604Z" fill="#115810"/>
<path d="M614.21 206.953C616.74 220.389 619.472 244.907 610.06 253.991C620.615 265.147 633.34 274.025 647.454 280.078C665.417 268.819 651.831 253.991 651.831 253.991C636.853 250.398 637.233 239.29 639.838 228.84L614.21 206.953Z" fill="#FFC3BD"/>
<path opacity="0.2" d="M624.658 215.885L639.838 228.84C639.192 231.269 638.761 233.749 638.548 236.253C632.83 235.419 624.962 229.143 624.355 223.147C624.017 220.728 624.12 218.267 624.658 215.885Z" fill="black"/>
<path d="M598.245 189.773C607.075 210.42 610.389 219.377 624.911 226.411C646.796 236.988 670.249 221.629 667.744 198.73C665.518 178.134 651.451 147.795 627.77 146.758C622.549 146.507 617.351 147.595 612.668 149.918C607.986 152.242 603.976 155.724 601.017 160.034C598.059 164.343 596.252 169.338 595.766 174.543C595.281 179.748 596.134 184.99 598.245 189.773Z" fill="#FFC3BD"/>
<path d="M624.177 158.041C629.237 170.414 609.427 194.629 595.208 204.143C577.093 166.442 587.871 150.779 624.177 158.041Z" fill="#115810"/>
<path d="M640.444 145.594C664.909 151.818 605.656 172.389 588.579 173.427C606.289 144.43 617.471 138.104 640.444 145.594Z" fill="#115810"/>
<path d="M679.281 396.47C679.281 396.47 671.362 562.128 672.121 631.204C672.905 703.064 625.771 883.398 625.771 883.398L607.631 878.337C607.631 878.337 616.359 731.581 624.936 631.407C611.983 554.486 604.823 396.369 604.823 396.369L679.281 396.47Z" fill="#FFC3BD"/>
<path d="M624.304 879.249L607.404 875.327C606.971 875.223 606.515 875.278 606.12 875.482C605.725 875.687 605.417 876.027 605.253 876.44L598.346 893.317C598.177 893.807 598.112 894.327 598.156 894.843C598.201 895.359 598.353 895.86 598.604 896.313C598.854 896.766 599.197 897.162 599.61 897.474C600.024 897.786 600.498 898.008 601.003 898.125C609.756 899.997 610.364 899.593 621.243 902.148C628.023 903.717 639.712 909.385 649.3 909.385C658.889 909.385 657.093 900.326 653.07 899.618C638.523 896.961 637.89 891.799 627.568 881.476C626.7 880.453 625.573 879.683 624.304 879.249Z" fill="#115810"/>
<path d="M655.27 396.471C655.27 396.471 604.493 634.494 592.374 657.393C576.03 688.313 423.395 644.463 418.184 644.565L417.425 628.902C417.425 628.902 492.591 627.182 554.879 630.294C554.879 552.285 587.339 396.471 587.339 396.471H655.27Z" fill="#FFC3BD"/>
<path d="M420.284 644.362L431.618 631.204C431.91 630.872 432.071 630.445 432.071 630.002C432.071 629.56 431.91 629.133 431.618 628.801L419.98 614.859C419.627 614.478 419.197 614.177 418.719 613.975C418.241 613.773 417.725 613.675 417.206 613.687C416.688 613.698 416.177 613.82 415.709 614.044C415.241 614.268 414.825 614.589 414.49 614.985C408.772 621.842 408.848 622.576 401.46 631.128C396.932 636.391 393.617 640.794 386.862 647.575C380.107 654.356 386.533 661.542 389.873 659.215C402.017 650.738 402.801 650.789 416.792 646.361C418.115 646.021 419.321 645.33 420.284 644.362Z" fill="#115810"/>
<path d="M632.501 184.231C633.108 185.952 634.525 187.015 635.638 186.635C636.752 186.256 637.182 184.51 636.574 182.789C635.967 181.069 634.55 179.981 633.412 180.385C632.273 180.79 631.793 182.511 632.501 184.231Z" fill="#115810"/>
<path d="M651.829 177.297C652.461 179.018 653.853 180.08 654.991 179.676C656.13 179.271 656.535 177.575 655.902 175.855C655.27 174.134 653.878 173.046 652.765 173.325C651.652 173.603 651.222 175.577 651.829 177.297Z" fill="#115810"/>
<path d="M652.311 173.729L656.005 171.199C656.005 171.199 655.044 175.045 652.311 173.729Z" fill="#115810"/>
<path d="M647.678 182.182C650.632 185.567 654.037 188.53 657.798 190.987C657.146 191.927 656.297 192.713 655.309 193.29C654.321 193.867 653.219 194.221 652.08 194.327L647.678 182.182Z" fill="#ED847E"/>
<path d="M645.479 203.942C646.483 203.751 647.472 203.489 648.439 203.158C648.573 203.111 648.683 203.012 648.745 202.884C648.807 202.756 648.815 202.609 648.768 202.475C648.721 202.34 648.623 202.23 648.495 202.169C648.366 202.107 648.219 202.099 648.085 202.146C645.964 202.965 643.679 203.268 641.418 203.031C639.157 202.793 636.985 202.021 635.081 200.779C635.024 200.736 634.96 200.704 634.891 200.686C634.822 200.668 634.751 200.663 634.68 200.673C634.61 200.682 634.542 200.705 634.48 200.741C634.419 200.777 634.365 200.824 634.322 200.881C634.278 200.937 634.247 201.001 634.229 201.07C634.21 201.139 634.206 201.211 634.215 201.281C634.224 201.352 634.248 201.419 634.283 201.481C634.319 201.543 634.366 201.596 634.423 201.64C637.669 203.816 641.634 204.641 645.479 203.942Z" fill="#115810"/>
<path d="M597.307 202.549C599.595 206.201 603.232 208.802 607.427 209.786C613.044 211.025 615.523 205.914 613.702 200.778C612.032 196.147 607.124 189.948 601.608 191.011C600.417 191.282 599.312 191.845 598.393 192.649C597.474 193.454 596.769 194.474 596.343 195.619C595.916 196.763 595.781 197.996 595.949 199.206C596.118 200.416 596.584 201.565 597.307 202.549Z" fill="#FFC3BD"/>
<path d="M612.996 211.355C612.996 212.356 612.699 213.335 612.143 214.167C611.587 214.999 610.797 215.648 609.873 216.031C608.948 216.414 607.931 216.514 606.949 216.319C605.967 216.124 605.066 215.642 604.358 214.934C603.651 214.226 603.169 213.324 602.973 212.343C602.778 211.361 602.878 210.344 603.261 209.419C603.644 208.494 604.293 207.704 605.125 207.148C605.957 206.592 606.935 206.295 607.936 206.295C609.278 206.295 610.565 206.828 611.514 207.777C612.463 208.726 612.996 210.013 612.996 211.355Z" fill="#115810"/>
<path d="M626.201 176.968C626.486 176.894 626.73 176.713 626.884 176.462C627.502 175.266 628.392 174.231 629.481 173.44C630.571 172.649 631.83 172.125 633.159 171.908C633.298 171.898 633.435 171.861 633.56 171.798C633.685 171.736 633.797 171.649 633.889 171.543C633.98 171.438 634.05 171.315 634.094 171.182C634.138 171.049 634.156 170.909 634.145 170.769C634.136 170.629 634.099 170.493 634.036 170.368C633.974 170.242 633.887 170.131 633.781 170.039C633.675 169.947 633.553 169.877 633.42 169.833C633.287 169.789 633.147 169.772 633.007 169.782C631.315 170.009 629.703 170.641 628.307 171.623C626.911 172.605 625.772 173.909 624.987 175.425C624.92 175.548 624.878 175.682 624.864 175.822C624.85 175.961 624.863 176.101 624.903 176.235C624.943 176.369 625.009 176.494 625.097 176.602C625.185 176.711 625.294 176.801 625.417 176.867C625.533 176.939 625.663 176.985 625.798 177.002C625.933 177.019 626.071 177.008 626.201 176.968Z" fill="#115810"/>
<path d="M657.803 164.899C658.035 164.766 658.207 164.549 658.283 164.292C658.326 164.157 658.342 164.016 658.329 163.875C658.317 163.734 658.276 163.598 658.21 163.473C658.144 163.348 658.054 163.237 657.945 163.148C657.836 163.058 657.71 162.991 657.575 162.951C655.954 162.426 654.23 162.297 652.549 162.574C650.868 162.851 649.277 163.527 647.91 164.545C647.778 164.628 647.666 164.738 647.58 164.868C647.495 164.998 647.438 165.145 647.414 165.299C647.39 165.453 647.4 165.611 647.442 165.761C647.484 165.911 647.558 166.05 647.659 166.169C647.76 166.288 647.885 166.384 648.025 166.45C648.166 166.516 648.32 166.552 648.476 166.554C648.631 166.556 648.786 166.524 648.928 166.461C649.071 166.399 649.198 166.306 649.302 166.19C650.383 165.406 651.635 164.889 652.954 164.682C654.273 164.476 655.623 164.585 656.892 165C657.042 165.049 657.201 165.065 657.358 165.048C657.515 165.03 657.667 164.98 657.803 164.899Z" fill="#115810"/>
<path d="M632.853 180.663L636.572 178.006C636.572 178.006 635.585 181.978 632.853 180.663Z" fill="#115810"/>
<path d="M679.279 396.471L676.471 606.889L553.639 581.965C548.579 482.197 561.913 424.152 587.314 396.445L679.279 396.471Z" fill="#115810"/>
<path d="M678.977 401.481L585.62 398.47C585.419 398.462 585.221 398.409 585.043 398.314C584.865 398.219 584.71 398.085 584.591 397.922C584.472 397.759 584.391 397.571 584.355 397.373C584.318 397.174 584.327 396.97 584.381 396.775L585.797 391.714C585.877 391.43 586.05 391.18 586.288 391.005C586.527 390.831 586.818 390.742 587.113 390.753L679.205 393.764C679.556 393.777 679.888 393.928 680.129 394.183C680.371 394.439 680.502 394.779 680.495 395.13L680.344 400.191C680.33 400.542 680.18 400.874 679.924 401.115C679.669 401.357 679.329 401.488 678.977 401.481Z" fill="#115810"/>
<path opacity="0.4" d="M652.008 546.01L625.215 496.796L628.53 452.693L652.008 546.01Z" fill="black"/>
<path d="M577.246 280.028C569.277 267.149 562.066 254.269 555.286 240.834C548.28 227.359 542.251 213.398 537.247 199.059C536.007 195.364 534.894 191.468 533.933 187.622C533.427 185.673 533.022 183.624 532.642 181.574L531.807 175.881C530.846 168.29 530.036 161.104 529.277 153.741C527.962 139.015 526.95 124.314 526.52 109.537C526.481 108.117 526.967 106.732 527.885 105.649C528.804 104.565 530.09 103.858 531.497 103.664C532.904 103.469 534.333 103.801 535.511 104.595C536.689 105.39 537.532 106.591 537.879 107.969C541.396 122.29 544.457 136.662 547.468 150.983L551.896 172.339L553.034 177.399C553.439 178.918 553.818 180.461 554.299 182.055C555.235 185.218 556.348 188.406 557.613 191.645C560.143 198.072 562.952 204.549 566.013 210.951C569.074 217.353 572.287 223.779 575.652 230.131C582.433 242.782 589.593 255.433 596.854 267.73V267.882C598.447 270.506 598.933 273.656 598.205 276.638C597.477 279.62 595.594 282.191 592.97 283.785C590.346 285.379 587.197 285.865 584.215 285.137C581.233 284.408 578.663 282.525 577.069 279.901L577.246 280.028Z" fill="#FFC3BD"/>
<path d="M535.576 114.573L557.334 103.414L536.108 94.5078C536.108 94.5078 524.723 103.541 526.392 112.827L535.576 114.573Z" fill="#FFC3BD"/>
<path d="M565.329 86.1318L547.163 79.6543L533.4 97.012L557.334 103.414L565.329 86.1318Z" fill="#FFC3BD"/>
<path d="M449.789 112.687L441.198 118.035L442.535 120.183L451.126 114.835L449.789 112.687Z" fill="#115810"/>
<path d="M475.934 96.403L457.763 107.715L459.1 109.863L477.271 98.5511L475.934 96.403Z" fill="#115810"/>
<path d="M512.324 84.1836L557.965 125.073L455.424 205.637L414.717 144.91L512.324 84.1836Z" fill="#115810"/>
<path d="M560.572 127.425L557.966 125.072L455.425 205.636L478.879 215.884L560.572 127.425Z" fill="#115810"/>
<path d="M527.128 98.0752C527.04 98.0743 526.953 98.0533 526.874 98.0138C526.795 97.9744 526.726 97.9175 526.672 97.8475C526.616 97.7911 526.571 97.724 526.54 97.6502C526.51 97.5764 526.494 97.4973 526.494 97.4173C526.494 97.3374 526.51 97.2583 526.54 97.1845C526.571 97.1106 526.616 97.0436 526.672 96.9872C531.732 92.6098 535.553 89.1433 539.955 87.8782C540.031 87.8548 540.112 87.8467 540.191 87.8544C540.271 87.8621 540.348 87.8854 540.418 87.923C540.489 87.9606 540.551 88.0118 540.602 88.0736C540.653 88.1353 540.691 88.2065 540.714 88.283C540.737 88.3594 540.745 88.4397 540.738 88.5193C540.73 88.5988 540.707 88.6761 540.669 88.7466C540.631 88.8171 540.58 88.8795 540.518 88.9302C540.457 88.9809 540.386 89.019 540.309 89.0421C536.16 90.2313 532.314 93.6219 527.482 97.8981C527.391 98.0006 527.264 98.064 527.128 98.0752Z" fill="#115810"/>
<path d="M544.204 113.357C544.118 113.356 544.034 113.337 543.956 113.302C543.877 113.268 543.807 113.217 543.749 113.154C543.692 113.098 543.647 113.031 543.616 112.957C543.586 112.883 543.57 112.804 543.57 112.724C543.57 112.644 543.586 112.565 543.616 112.491C543.647 112.418 543.692 112.351 543.749 112.294C550.175 106.601 554.198 101.591 555.361 97.821C555.414 97.6646 555.525 97.5347 555.671 97.4591C555.818 97.3835 555.988 97.3681 556.146 97.4161C556.296 97.4683 556.422 97.5755 556.497 97.7163C556.572 97.857 556.591 98.021 556.55 98.1752C555.285 102.224 551.263 107.284 544.558 113.205C544.459 113.291 544.335 113.344 544.204 113.357Z" fill="#115810"/>
</svg>
